<?xml version="1.0" encoding="UTF-8" standalone="no"?>
<svg
   xmlns:dc="http://purl.org/dc/elements/1.1/"
   xmlns:cc="http://creativecommons.org/ns#"
   xmlns:rdf="http://www.w3.org/1999/02/22-rdf-syntax-ns#"
   xmlns:svg="http://www.w3.org/2000/svg"
   xmlns="http://www.w3.org/2000/svg"
   xmlns:sodipodi="http://sodipodi.sourceforge.net/DTD/sodipodi-0.dtd"
   xmlns:inkscape="http://www.inkscape.org/namespaces/inkscape"
   inkscape:version="1.0beta2 (2b71d25, 2019-12-03)"
   sodipodi:docname="nights_stay-24px.svg"
   id="svg102"
   version="1.1"
   width="24"
   viewBox="0 0 24 24"
   height="24"
   enable-background="new 0 0 24 24">
  <metadata
     id="metadata108">
    <rdf:RDF>
      <cc:Work
         rdf:about="">
        <dc:format>image/svg+xml</dc:format>
        <dc:type
           rdf:resource="http://purl.org/dc/dcmitype/StillImage" />
      </cc:Work>
    </rdf:RDF>
  </metadata>
  <defs
     id="defs106" />
  <sodipodi:namedview
     inkscape:current-layer="g98"
     inkscape:window-maximized="0"
     inkscape:window-y="96"
     inkscape:window-x="281"
     inkscape:cy="12"
     inkscape:cx="9.9630773"
     inkscape:zoom="28"
     showgrid="false"
     id="namedview104"
     inkscape:window-height="940"
     inkscape:window-width="1497"
     inkscape:pageshadow="2"
     inkscape:pageopacity="0"
     guidetolerance="10"
     gridtolerance="10"
     objecttolerance="10"
     borderopacity="1"
     inkscape:document-rotation="0"
     bordercolor="#666666"
     pagecolor="#ffffff" />
  <g
     id="g90">
    <rect
       id="rect88"
       width="24"
       height="24"
       fill="none" />
  </g>
  <g
     id="g100">
    <g
       id="g98">
      <g
         style="fill:#ffeb3b;fill-opacity:1"
         id="g94">
        <path
           style="fill:#ffeb3b;fill-opacity:1"
           id="path92"
           d="M11.1,12.08C8.77,7.57,10.6,3.6,11.63,2.01C6.27,2.2,1.98,6.59,1.98,12c0,0.14,0.02,0.28,0.02,0.42 C2.62,12.15,3.29,12,4,12c1.66,0,3.18,0.83,4.1,2.15C9.77,14.63,11,16.17,11,18c0,1.52-0.87,2.83-2.12,3.51 c0.98,0.32,2.03,0.5,3.11,0.5c3.5,0,6.58-1.8,8.37-4.52C18,17.72,13.38,16.52,11.1,12.08z" />
      </g>
      <path
         style="fill:#bdbdbd;fill-opacity:1"
         id="path96"
         d="M7,16l-0.18,0C6.4,14.84,5.3,14,4,14c-1.66,0-3,1.34-3,3s1.34,3,3,3c0.62,0,2.49,0,3,0c1.1,0,2-0.9,2-2 C9,16.9,8.1,16,7,16z" />
      <g
         transform="matrix(0.4875,0,0,0.4875,12,1)"
         id="g951">
        <path
           style="fill:#58a5f0;fill-opacity:1"
           inkscape:connector-curvature="0"
           d="M 17,7 H 7 c -2.76,0 -5,2.24 -5,5 0,2.76 2.24,5 5,5 h 10 c 2.76,0 5,-2.24 5,-5 0,-2.76 -2.24,-5 -5,-5 z m 0,8 c -1.66,0 -3,-1.34 -3,-3 0,-1.66 1.34,-3 3,-3 1.66,0 3,1.34 3,3 0,1.66 -1.34,3 -3,3 z"
           id="path937" />
        <path
           inkscape:connector-curvature="0"
           d="M 0,0 H 24 V 24 H 0 Z"
           fill="none"
           id="path939" />
      </g>
    </g>
  </g>
</svg>
